#!OML:ASF H:\MichaelJackson\Top Level 1\Subject 1\Session 1\male.ASF
:FULLY-SPECIFIED
:DEGREES
778
root -0.0533048 10.7721 24.9963 36.9521 56.4854 14.2551
lowerback 30.2124 -4.96939 7.37453
upperback 9.79921 -4.05419 -6.64869
thorax -6.06897 -1.51879 -9.71883
lowerneck -9.85082 1.72822 3.26724
upperneck -4.07647 2.15978 -15.2185
head 0.669003 0.982509 -5.06323
rclavicle 6.13748e-015 2.82523e-014
rhumerus 2.25964 33.3119 7.70559
rradius 108.336
rwrist -35.5154
rhand -23.4639 -37.6072
rfingers 7.12502
rthumb 2.99513 292.434
lclavicle 6.13748e-015 2.82523e-014
lhumerus -44.3664 21.5823 61.0867
lradius 47.251
lwrist 25.3616
lhand -31.8955 6.94072
lfingers 7.12502
lthumb -5.14778 36.8582
rfemur -113.497 -31.4598 30.7323
rtibia 112.47
rfoot -25.7242 38.5099
rtoes 14.4352
lfemur -1.50933 -12.0831 18.2254
ltibia 14.1097
lfoot -10.9472 40.7533
ltoes 53.2754
779
root -0.0384288 10.8122 25.0263 37.0977 56.0083 14.2596
lowerback 30.1231 -4.96388 7.4453
upperback 9.79612 -4.03069 -6.53172
thorax -6.0215 -1.51029 -9.64117
lowerneck -9.8389 1.88611 3.4725
upperneck -4.05196 2.35626 -15.5239
head 0.703482 1.07487 -5.18447
rclavicle -2.68111e-014 2.68359e-015
rhumerus 2.77539 32.9844 7.95536
rradius 108.111
rwrist -35.3745
rhand -23.6854 -37.8162
rfingers 7.12502
rthumb 2.7812 292.222
lclavicle -2.68111e-014 2.68359e-015
lhumerus -44.3333 21.4046 61.342
lradius 47.2152
lwrist 25.2031
lhand -31.6752 6.99771
lfingers 7.12502
lthumb -4.93513 36.9202
rfemur -113.229 -31.0685 30.4776
rtibia 112.218
rfoot -25.553 38.6751
rtoes 15.1149
lfemur -1.41854 -11.9131 17.6916
ltibia 14.1225
lfoot -11.0925 40.9723
ltoes 53.2988
780
root -0.023777 10.8538 25.056 37.2203 55.5476 14.2061
lowerback 30.0221 -4.95377 7.52803
upperback 9.78164 -3.99927 -6.40096
thorax -5.97905 -1.49935 -9.55823
lowerneck -9.85189 2.04241 3.66499
upperneck -3.97033 2.55924 -15.8338
head 0.760374 1.16675 -5.30425
rclavicle 4.89507e-014 2.98425e-014
rhumerus 3.29839 32.6883 8.24023
rradius 107.907
rwrist -35.2415
rhand -23.8978 -38.0134
rfingers 7.12502
rthumb 2.57607 292.022
lclavicle 4.89507e-014 2.98425e-014
lhumerus -44.3069 21.2188 61.5931
lradius 47.1796
lwrist 25.0882
lhand -31.4262 7.04507
lfingers 7.12502
lthumb -4.69466 36.9731
rfemur -112.975 -30.6662 30.2757
rtibia 111.943
rfoot -25.36 38.8633
rtoes 15.8359
lfemur -1.33824 -11.7672 17.1946
ltibia 14.1116
lfoot -11.2764 41.2257
ltoes 53.3001
781
root -0.00941485 10.8974 25.0854 37.3315 55.1026 14.0984
lowerback 29.9071 -4.94095 7.62394
upperback 9.75558 -3.96235 -6.25841
thorax -5.94173 -1.48714 -9.47207
lowerneck -9.89224 2.19727 3.84094
upperneck -3.84855 2.76763 -16.1395
head 0.834723 1.25835 -5.41922
rclavicle 1.43125e-014 1.48592e-014
rhumerus 3.83357 32.4039 8.57338
rradius 107.726
rwrist -35.1559
rhand -24.0678 -38.1637
rfingers 7.12502
rthumb 2.41188 291.87
lclavicle 1.43125e-014 1.48592e-014
lhumerus -44.2748 21.0905 61.8345
lradius 47.1291
lwrist 24.9579
lhand -31.1619 7.07594
lfingers 7.12502
lthumb -4.43951 37.0094
rfemur -112.736 -30.2456 30.1245
rtibia 111.638
rfoot -25.1499 39.0616
rtoes 16.5823
lfemur -1.28995 -11.631 16.7328
ltibia 14.0936
lfoot -11.4547 41.5087
ltoes 53.3069
782
root 0.00446867 10.9433 25.1145 37.4334 54.6775 13.9402
lowerback 29.7853 -4.92279 7.73615
upperback 9.7183 -3.91496 -6.10312
thorax -5.91104 -1.47113 -9.38487
lowerneck -9.9477 2.34595 4.00776
upperneck -3.70948 2.97157 -16.4397
head 0.916897 1.34627 -5.53086
rclavicle 4.96962e-015 6.03311e-014
rhumerus 4.33366 32.1326 8.91977
rradius 107.576
rwrist -35.1123
rhand -24.1701 -38.2445
rfingers 7.12502
rthumb 2.31308 291.788
lclavicle 4.96962e-015 6.03311e-014
lhumerus -44.2316 21.0036 62.0795
lradius 47.0729
lwrist 24.8232
lhand -30.9308 7.08248
lfingers 7.12502
lthumb -4.21627 37.0205
rfemur -112.511 -29.8065 30.0233
rtibia 111.3
rfoot -24.9245 39.2573
rtoes 17.3357
lfemur -1.28379 -11.4886 16.3114
ltibia 14.0784
lfoot -11.6307 41.8068
ltoes 53.3413
783
root 0.0178801 10.9916 25.1437 37.5478 54.2553 13.7643
lowerback 29.6586 -4.89459 7.84313
upperback 9.6806 -3.85688 -5.94634
thorax -5.87623 -1.4499 -9.29717
lowerneck -10.0252 2.48596 4.1644
upperneck -3.57678 3.16494 -16.7221
head 1.00001 1.42847 -5.6355
rclavicle -1.2921e-014 -3.71727e-014
rhumerus 4.77136 31.8612 9.25278
rradius 107.459
rwrist -35.109
rhand -24.2175 -38.2814
rfingers 7.12502
rthumb 2.26732 291.751
lclavicle -1.2921e-014 -3.71727e-014
lhumerus -44.1645 20.9559 62.3251
lradius 47.0194
lwrist 24.686
lhand -30.7408 7.07157
lfingers 7.12502
lthumb -4.03284 37.0131
rfemur -112.297 -29.3506 29.9445
rtibia 110.931
rfoot -24.6856 39.4447
rtoes 18.0668
lfemur -1.32011 -11.3362 15.9008
ltibia 14.0788
lfoot -11.8172 42.1217
ltoes 53.4014
784
root 0.0311552 11.0427 25.1728 37.6791 53.835 13.5902
lowerback 29.5363 -4.86059 7.94807
upperback 9.64432 -3.79233 -5.79824
thorax -5.84122 -1.42518 -9.21997
lowerneck -10.0995 2.6154 4.32442
upperneck -3.47494 3.34011 -16.9846
head 1.072 1.50329 -5.73543
rclavicle 1.08536e-013 2.98177e-016
rhumerus 5.12566 31.5992 9.54136
rradius 107.368
rwrist -35.1222
rhand -24.2121 -38.2652
rfingers 7.12502
rthumb 2.27251 291.767
lclavicle 1.08536e-013 2.98177e-016
lhumerus -44.0701 20.9319 62.5648
lradius 46.967
lwrist 24.5617
lhand -30.6176 7.03896
lfingers 7.12502
lthumb -3.91391 36.9828
rfemur -112.078 -28.8878 29.8676
rtibia 110.532
rfoot -24.4393 39.6154
rtoes 18.7659
lfemur -1.39386 -11.1926 15.4876
ltibia 14.0971
lfoot -12.0362 42.452
ltoes 53.5059
785
root 0.0440401 11.0959 25.2024 37.8161 53.4127 13.4185
lowerback 29.4288 -4.81765 8.03761
upperback 9.61368 -3.71984 -5.66026
thorax -5.80493 -1.39584 -9.14762
lowerneck -10.164 2.73593 4.49451
upperneck -3.41911 3.49634 -17.2278
head 1.12726 1.57143 -5.83224
rclavicle -1.68967e-014 3.02153e-014
rhumerus 5.39809 31.3417 9.78669
rradius 107.305
rwrist -35.1584
rhand -24.1752 -38.2325
rfingers 7.12502
rthumb 2.3082 291.8
lclavicle -1.68967e-014 3.02153e-014
lhumerus -43.948 20.908 62.7952
lradius 46.9207
lwrist 24.4663
lhand -30.5587 7.00207
lfingers 7.12502
lthumb -3.857 36.9469
rfemur -111.849 -28.4174 29.7926
rtibia 110.11
rfoot -24.1979 39.7573
rtoes 19.4042
lfemur -1.4958 -11.0311 15.0686
ltibia 14.135
lfoot -12.2247 42.7763
ltoes 53.6184
